<svg viewBox="0 0 800 600" xmlns="http://www.w3.org/2000/svg">
  <rect x="100" y="80" width="600" height="400" rx="24" fill="#FFFFFF" filter="drop-shadow(0 24px 60px rgba(11,27,51,.16))"/>
  <path d="M100 104 C100 90.745 110.745 80 124 80 L676 80 C689.255 80 700 90.745 700 104 L700 120 L100 120 Z" fill="#F5FBFD"/>
  <circle cx="130" cy="100" r="6" fill="#FB923C"/>
  <circle cx="150" cy="100" r="6" fill="#FDBA74"/>
  <circle cx="170" cy="100" r="6" fill="#14B8A6"/>
  <rect x="250" y="90" width="300" height="20" rx="10" fill="#E0F7FA"/>
  <rect x="140" y="160" width="320" height="200" rx="16" fill="#F5FBFD"/>
  <path d="M160 320 L220 260 L280 280 L360 180 L420 200" stroke="url(#grad-teal)" stroke-width="8" stroke-linecap="round" stroke-linejoin="round" fill="none"/>
  <circle cx="360" cy="180" r="8" fill="#0891B2"/>
  <rect x="500" y="160" width="160" height="100" rx="16" fill="#FFFFFF" filter="drop-shadow(0 10px 30px rgba(8,145,178,.12))"/>
  <rect x="520" y="180" width="40" height="40" rx="12" fill="url(#grad-primary)"/>
  <rect x="570" y="190" width="70" height="8" rx="4" fill="#0F172A"/>
  <rect x="570" y="210" width="50" height="6" rx="3" fill="#52606D"/>
  <rect x="540" y="280" width="120" height="220" rx="20" fill="#0B1B33" filter="drop-shadow(0 24px 60px rgba(11,27,51,.16))"/>
  <rect x="550" y="290" width="100" height="200" rx="12" fill="#FFFFFF"/>
  <rect x="560" y="310" width="80" height="12" rx="6" fill="#22D3EE"/>
  <rect x="560" y="330" width="60" height="6" rx="3" fill="#DCEEF3"/>
  <g filter="drop-shadow(0 10px 30px rgba(8,145,178,.12))">
    <rect x="60" y="200" width="100" height="40" rx="20" fill="#FFFFFF"/>
    <circle cx="80" cy="220" r="10" fill="#FB923C"/>
    <rect x="100" y="216" width="40" height="8" rx="4" fill="#0F172A"/>
  </g>
  <g filter="drop-shadow(0 10px 30px rgba(8,145,178,.12))">
    <rect x="640" y="420" width="120" height="40" rx="20" fill="#FFFFFF"/>
    <circle cx="660" cy="440" r="10" fill="#14B8A6"/>
    <rect x="680" y="436" width="60" height="8" rx="4" fill="#0F172A"/>
  </g>
  <defs>
    <linearGradient id="grad-teal" x1="0%" y1="0%" x2="100%" y2="0%">
      <stop offset="0%" stop-color="#0891B2"/>
      <stop offset="100%" stop-color="#14B8A6"/>
    </linearGradient>
    <linearGradient id="grad-primary" x1="0%" y1="0%" x2="100%" y2="100%">
      <stop offset="0%" stop-color="#0891B2"/>
      <stop offset="100%" stop-color="#14B8A6"/>
    </linearGradient>
  </defs>
</svg>